<?xml version="1.0" encoding="UTF-8"?>
<svg xmlns="http://www.w3.org/2000/svg" style="stroke-dasharray:none; shape-rendering:auto; font-family:'Arial'; text-rendering:auto; fill-opacity:1; color-interpolation:auto; color-rendering:auto; font-size:12; fill:black; stroke:black; image-rendering:auto; stroke-miterlimit:10; stroke-linecap:square; stroke-linejoin:miter; font-style:normal; stroke-width:1; stroke-dashoffset:0; font-weight:normal; stroke-opacity:1;" contentScriptType="text/ecmascript" preserveAspectRatio="xMidYMid meet" zoomAndPan="magnify" version="1.0" contentStyleType="text/css" xml:xlink="http://www.w3.org/1999/xlink" width="1441" height="1211"><rect x="10" y="140" width="1431" height="1071" ry="0" rx="0" style="stroke:#000000; fill:#ADC9AC" /><g componentSequence="2"><text x="-675" y="17" transform="rotate(270)" text-anchor="middle" style="font-weight:bold;font-size:10px;stroke:none; fill:#434343"><tspan dy="14" x="-675">Aprobadores</tspan></text></g><rect x="10" y="10" width="1431" height="131" ry="0" rx="0" style="stroke:#000000; fill:#82B0B7" /><g componentSequence="1"><text x="-75" y="17" transform="rotate(270)" text-anchor="middle" style="font-weight:bold;font-size:10px;stroke:none; fill:#434343"><tspan dy="14" x="-75">Solicitantes</tspan></text></g><g sequence="3"><ellipse cx="167" cy="66" rx="17" ry="17" stroke-width="1" style="fill:url(#linearGradient66FF6696FF96B6FFB6_948362657);" stroke="336633" /></g><g sequence="4"><rect x="120" y="260" width="105" height="70" ry="5" rx="5" style="fill:url(#linearGradientF8FBFEEDF5FCDEEDFAD4E7F8E2E5E9_910243009);" stroke="191970" /></g><g componentSequence="4"><text x="172" y="275" text-anchor="middle" style="font-weight:bold;font-size:10px;stroke:none; fill:#333399"><tspan dy="14" x="172">Aprobación</tspan><tspan dy="14" x="172">Analista</tspan></text></g><g sequence="6"><polygon points=" 320 280 350 250 380 280 350 310 320 280" style="fill:url(#linearGradientFAFBFCFFFFCC_847165137);" stroke="000000" /></g><g componentSequence="6"><text x="350" y="313" text-anchor="middle" style="font-weight:bold;font-size:10px;stroke:none; fill:#333399"><tspan dy="14" x="350">Decisión</tspan></text></g><g sequence="10"><ellipse cx="467" cy="287" rx="17" ry="17" stroke-width="3" style="fill:url(#linearGradientFF6666FF9696FFB6B6_2004631290);" stroke="993333" /></g><g sequence="12"><ellipse cx="347" cy="177" rx="17" ry="17" stroke-width="3" style="fill:url(#linearGradientFF6666FF9696FFB6B6_2040106593);" stroke="993333" /></g><g sequence="12"><polygon points=" 338 173 343 168 348 173 353 168 358 173 353 178 358 183 353 188 348 183 343 188 338 183 343 178" style="stroke:none; fill:#993333" /></g><g sequence="13"><rect x="300" y="470" width="105" height="84" ry="5" rx="5" style="fill:url(#linearGradientF8FBFEEDF5FCDEEDFAD4E7F8E2E5E9_1178684079);" stroke="191970" /></g><g componentSequence="13"><text x="352" y="485" text-anchor="middle" style="font-weight:bold;font-size:10px;stroke:none; fill:#333399"><tspan dy="14" x="352">Aprobación</tspan><tspan dy="14" x="352">Gerente de</tspan><tspan dy="14" x="352">Riesgos</tspan></text></g><g sequence="15"><polygon points=" 510 500 540 470 570 500 540 530 510 500" style="fill:url(#linearGradientFAFBFCFFFFCC_21931144);" stroke="000000" /></g><g componentSequence="15"><text x="540" y="533" text-anchor="middle" style="font-weight:bold;font-size:10px;stroke:none; fill:#333399"><tspan dy="14" x="540">Decisión</tspan></text></g><g sequence="19"><ellipse cx="537" cy="407" rx="17" ry="17" stroke-width="3" style="fill:url(#linearGradientFF6666FF9696FFB6B6_391365045);" stroke="993333" /></g><g sequence="19"><polygon points=" 528 403 533 398 538 403 543 398 548 403 543 408 548 413 543 418 538 413 533 418 528 413 533 408" style="stroke:none; fill:#993333" /></g><g sequence="20"><ellipse cx="657" cy="507" rx="17" ry="17" stroke-width="3" style="fill:url(#linearGradientFF6666FF9696FFB6B6_579649464);" stroke="993333" /></g><g sequence="22"><rect x="490" y="690" width="105" height="84" ry="5" rx="5" style="fill:url(#linearGradientF8FBFEEDF5FCDEEDFAD4E7F8E2E5E9_1851034996);" stroke="191970" /></g><g componentSequence="22"><text x="542" y="705" text-anchor="middle" style="font-weight:bold;font-size:10px;stroke:none; fill:#333399"><tspan dy="14" x="542">Aprobación</tspan><tspan dy="14" x="542">Gerente General</tspan></text></g><g sequence="24"><polygon points=" 690 715 720 685 750 715 720 745 690 715" style="fill:url(#linearGradientFAFBFCFFFFCC_441061074);" stroke="000000" /></g><g componentSequence="24"><text x="720" y="748" text-anchor="middle" style="font-weight:bold;font-size:10px;stroke:none; fill:#333399"><tspan dy="14" x="720">Decisión</tspan></text></g><g sequence="28"><ellipse cx="847" cy="727" rx="17" ry="17" stroke-width="3" style="fill:url(#linearGradientFF6666FF9696FFB6B6_320682567);" stroke="993333" /></g><g sequence="30"><ellipse cx="717" cy="607" rx="17" ry="17" stroke-width="3" style="fill:url(#linearGradientFF6666FF9696FFB6B6_1420506851);" stroke="993333" /></g><g sequence="30"><polygon points=" 708 603 713 598 718 603 723 598 728 603 723 608 728 613 723 618 718 613 713 618 708 613 713 608" style="stroke:none; fill:#993333" /></g><g sequence="31"><rect x="670" y="900" width="105" height="70" ry="5" rx="5" style="fill:url(#linearGradientF8FBFEEDF5FCDEEDFAD4E7F8E2E5E9_509492783);" stroke="191970" /></g><g componentSequence="31"><text x="722" y="915" text-anchor="middle" style="font-weight:bold;font-size:10px;stroke:none; fill:#333399"><tspan dy="14" x="722">Aprobación</tspan><tspan dy="14" x="722">CDA</tspan></text></g><g sequence="33"><polygon points=" 870 920 900 890 930 920 900 950 870 920" style="fill:url(#linearGradientFAFBFCFFFFCC_1411948456);" stroke="000000" /></g><g componentSequence="33"><text x="900" y="953" text-anchor="middle" style="font-weight:bold;font-size:10px;stroke:none; fill:#333399"><tspan dy="14" x="900">Decisión</tspan></text></g><g sequence="37"><ellipse cx="1017" cy="927" rx="17" ry="17" stroke-width="3" style="fill:url(#linearGradientFF6666FF9696FFB6B6_773675112);" stroke="993333" /></g><g sequence="39"><ellipse cx="897" cy="817" rx="17" ry="17" stroke-width="3" style="fill:url(#linearGradientFF6666FF9696FFB6B6_596410214);" stroke="993333" /></g><g sequence="39"><polygon points=" 888 813 893 808 898 813 903 808 908 813 903 818 908 823 903 828 898 823 893 828 888 823 893 818" style="stroke:none; fill:#993333" /></g><g componentSequence="5"><text x="179" y="172" style="font-size:10px;font-weight:none;stroke:none; fill:#333399" text-anchor="left" /></g><g componentSequence="7"><text x="282" y="294" style="font-size:10px;font-weight:none;stroke:none; fill:#333399" text-anchor="left" /></g><g componentSequence="9"><text x="359" y="222" style="font-size:10px;font-weight:none;stroke:none; fill:#333399" text-anchor="left" /></g><g componentSequence="11"><text x="425" y="290" style="font-size:10px;font-weight:none;stroke:none; fill:#333399" text-anchor="left" /></g><g componentSequence="14"><text x="361" y="404" style="font-size:10px;font-weight:none;stroke:none; fill:#333399" text-anchor="left" /></g><g componentSequence="16"><text x="467" y="513" style="font-size:10px;font-weight:none;stroke:none; fill:#333399" text-anchor="left" /></g><g componentSequence="18"><text x="548" y="447" style="font-size:10px;font-weight:none;stroke:none; fill:#333399" text-anchor="left" /></g><g componentSequence="21"><text x="615" y="510" style="font-size:10px;font-weight:none;stroke:none; fill:#333399" text-anchor="left" /></g><g componentSequence="23"><text x="551" y="624" style="font-size:10px;font-weight:none;stroke:none; fill:#333399" text-anchor="left" /></g><g componentSequence="25"><text x="652" y="730" style="font-size:10px;font-weight:none;stroke:none; fill:#333399" text-anchor="left" /></g><g componentSequence="27"><text x="728" y="655" style="font-size:10px;font-weight:none;stroke:none; fill:#333399" text-anchor="left" /></g><g componentSequence="29"><text x="800" y="728" style="font-size:10px;font-weight:none;stroke:none; fill:#333399" text-anchor="left" /></g><g componentSequence="32"><text x="731" y="836" style="font-size:10px;font-weight:none;stroke:none; fill:#333399" text-anchor="left" /></g><g componentSequence="34"><text x="832" y="934" style="font-size:10px;font-weight:none;stroke:none; fill:#333399" text-anchor="left" /></g><g componentSequence="36"><text x="909" y="862" style="font-size:10px;font-weight:none;stroke:none; fill:#333399" text-anchor="left" /></g><g componentSequence="38"><text x="975" y="930" style="font-size:10px;font-weight:none;stroke:none; fill:#333399" text-anchor="left" /></g><path style="fill:none; stroke:#000000;stroke-width:1" d="M167.0 83.0 L171.0 259.0" /><polygon style="fill:#000000; stroke:#000000;" points=" 176 249 171 259 166 249 171 251" /><path style="fill:none; stroke:#000000;stroke-width:1" d="M225.0 294.0 L319.0 294.0" /><polygon style="fill:#000000; stroke:#000000;" points=" 309 289 319 294 309 299 311 294" /><path style="fill:none; stroke:#000000;stroke-width:1" d="M349.0 249.0 L347.0 194.0" /><polygon style="fill:#000000; stroke:#000000;" points=" 342 204 347 194 352 204 347 202" /><path style="fill:none; stroke:#000000;stroke-width:1" d="M380.0 292.0 L450.0 288.0" /><polygon style="fill:#000000; stroke:#000000;" points=" 440 284 450 288 440 294 442 288" /><path style="fill:none; stroke:#000000;stroke-width:1" d="M350.0 338.0 L352.0 469.0" /><polygon style="fill:#000000; stroke:#000000;" points=" 357 459 352 469 347 459 352 461" /><path style="fill:none; stroke:#000000;stroke-width:1" d="M405.0 512.0 L509.0 513.0" /><polygon style="fill:#000000; stroke:#000000;" points=" 499 508 509 513 499 518 501 513" /><path style="fill:none; stroke:#000000;stroke-width:1" d="M538.0 469.0 L537.0 424.0" /><polygon style="fill:#000000; stroke:#000000;" points=" 532 434 537 424 542 434 537 432" /><path style="fill:none; stroke:#000000;stroke-width:1" d="M570.0 512.0 L640.0 508.0" /><polygon style="fill:#000000; stroke:#000000;" points=" 630 504 640 508 630 514 632 508" /><path style="fill:none; stroke:#000000;stroke-width:1" d="M540.0 558.0 L542.0 689.0" /><polygon style="fill:#000000; stroke:#000000;" points=" 547 679 542 689 537 679 542 681" /><path style="fill:none; stroke:#000000;stroke-width:1" d="M595.0 731.0 L689.0 729.0" /><polygon style="fill:#000000; stroke:#000000;" points=" 679 724 689 729 679 734 681 729" /><path style="fill:none; stroke:#000000;stroke-width:1" d="M719.0 684.0 L717.0 624.0" /><polygon style="fill:#000000; stroke:#000000;" points=" 712 634 717 624 722 634 717 632" /><path style="fill:none; stroke:#000000;stroke-width:1" d="M750.0 728.0 L830.0 727.0" /><polygon style="fill:#000000; stroke:#000000;" points=" 820 722 830 727 820 732 822 727" /><path style="fill:none; stroke:#000000;stroke-width:1" d="M720.0 773.0 L722.0 899.0" /><polygon style="fill:#000000; stroke:#000000;" points=" 727 889 722 899 717 889 722 891" /><path style="fill:none; stroke:#000000;stroke-width:1" d="M775.0 934.0 L869.0 934.0" /><polygon style="fill:#000000; stroke:#000000;" points=" 859 929 869 934 859 939 861 934" /><path style="fill:none; stroke:#000000;stroke-width:1" d="M899.0 889.0 L897.0 834.0" /><polygon style="fill:#000000; stroke:#000000;" points=" 892 844 897 834 902 844 897 842" /><path style="fill:none; stroke:#000000;stroke-width:1" d="M930.0 932.0 L1000.0 928.0" /><polygon style="fill:#000000; stroke:#000000;" points=" 990 924 1000 928 990 934 992 928" /><defs><linearGradient xmlns:xlink="http://www.w3.org/1999/xlink" xlink:href="#linearGradient66FF6696FF96B6FFB6" id="linearGradient66FF6696FF96B6FFB6_948362657" x1="0" y1="49.0" x2="0" y2="84.0" gradientUnits="userSpaceOnUse" xlink:type="simple" xlink:actuate="onLoad" xlink:show="other" /><linearGradient id="linearGradient66FF6696FF96B6FFB6"><stop style="stop-color:#66FF66;stop-opacity:1;" offset="0.0" id="stop66FF66" /><stop style="stop-color:#96FF96;stop-opacity:1;" offset="0.5" id="stop96FF96" /><stop style="stop-color:#B6FFB6;stop-opacity:1;" offset="1.0" id="stopB6FFB6" /></linearGradient><linearGradient xmlns:xlink="http://www.w3.org/1999/xlink" xlink:href="#linearGradientF8FBFEEDF5FCDEEDFAD4E7F8E2E5E9" id="linearGradientF8FBFEEDF5FCDEEDFAD4E7F8E2E5E9_910243009" x1="0" y1="260.0" x2="0" y2="365.0" gradientUnits="userSpaceOnUse" xlink:type="simple" xlink:actuate="onLoad" xlink:show="other" /><linearGradient id="linearGradientF8FBFEEDF5FCDEEDFAD4E7F8E2E5E9"><stop style="stop-color:#F8FBFE;stop-opacity:1;" offset="0.0" id="stopF8FBFE" /><stop style="stop-color:#EDF5FC;stop-opacity:1;" offset="0.25" id="stopEDF5FC" /><stop style="stop-color:#DEEDFA;stop-opacity:1;" offset="0.5" id="stopDEEDFA" /><stop style="stop-color:#D4E7F8;stop-opacity:1;" offset="0.75" id="stopD4E7F8" /><stop style="stop-color:#E2E5E9;stop-opacity:1;" offset="1.0" id="stopE2E5E9" /></linearGradient><linearGradient xmlns:xlink="http://www.w3.org/1999/xlink" xlink:href="#linearGradientFAFBFCFFFFCC" id="linearGradientFAFBFCFFFFCC_847165137" x1="0" y1="250.0" x2="0" y2="310.0" gradientUnits="userSpaceOnUse" xlink:type="simple" xlink:actuate="onLoad" xlink:show="other" /><linearGradient id="linearGradientFAFBFCFFFFCC"><stop style="stop-color:#FAFBFC;stop-opacity:1;" offset="0.0" id="stopFAFBFC" /><stop style="stop-color:#FFFFCC;stop-opacity:1;" offset="1.0" id="stopFFFFCC" /></linearGradient><linearGradient xmlns:xlink="http://www.w3.org/1999/xlink" xlink:href="#linearGradientFF6666FF9696FFB6B6" id="linearGradientFF6666FF9696FFB6B6_2004631290" x1="0" y1="270.0" x2="0" y2="305.0" gradientUnits="userSpaceOnUse" xlink:type="simple" xlink:actuate="onLoad" xlink:show="other" /><linearGradient id="linearGradientFF6666FF9696FFB6B6"><stop style="stop-color:#FF6666;stop-opacity:1;" offset="0.0" id="stopFF6666" /><stop style="stop-color:#FF9696;stop-opacity:1;" offset="0.5" id="stopFF9696" /><stop style="stop-color:#FFB6B6;stop-opacity:1;" offset="1.0" id="stopFFB6B6" /></linearGradient><linearGradient xmlns:xlink="http://www.w3.org/1999/xlink" xlink:href="#linearGradientFF6666FF9696FFB6B6" id="linearGradientFF6666FF9696FFB6B6_2040106593" x1="0" y1="160.0" x2="0" y2="195.0" gradientUnits="userSpaceOnUse" xlink:type="simple" xlink:actuate="onLoad" xlink:show="other" /><linearGradient xmlns:xlink="http://www.w3.org/1999/xlink" xlink:href="#linearGradientF8FBFEEDF5FCDEEDFAD4E7F8E2E5E9" id="linearGradientF8FBFEEDF5FCDEEDFAD4E7F8E2E5E9_1178684079" x1="0" y1="470.0" x2="0" y2="575.0" gradientUnits="userSpaceOnUse" xlink:type="simple" xlink:actuate="onLoad" xlink:show="other" /><linearGradient xmlns:xlink="http://www.w3.org/1999/xlink" xlink:href="#linearGradientFAFBFCFFFFCC" id="linearGradientFAFBFCFFFFCC_21931144" x1="0" y1="470.0" x2="0" y2="530.0" gradientUnits="userSpaceOnUse" xlink:type="simple" xlink:actuate="onLoad" xlink:show="other" /><linearGradient xmlns:xlink="http://www.w3.org/1999/xlink" xlink:href="#linearGradientFF6666FF9696FFB6B6" id="linearGradientFF6666FF9696FFB6B6_391365045" x1="0" y1="390.0" x2="0" y2="425.0" gradientUnits="userSpaceOnUse" xlink:type="simple" xlink:actuate="onLoad" xlink:show="other" /><linearGradient xmlns:xlink="http://www.w3.org/1999/xlink" xlink:href="#linearGradientFF6666FF9696FFB6B6" id="linearGradientFF6666FF9696FFB6B6_579649464" x1="0" y1="490.0" x2="0" y2="525.0" gradientUnits="userSpaceOnUse" xlink:type="simple" xlink:actuate="onLoad" xlink:show="other" /><linearGradient xmlns:xlink="http://www.w3.org/1999/xlink" xlink:href="#linearGradientF8FBFEEDF5FCDEEDFAD4E7F8E2E5E9" id="linearGradientF8FBFEEDF5FCDEEDFAD4E7F8E2E5E9_1851034996" x1="0" y1="690.0" x2="0" y2="795.0" gradientUnits="userSpaceOnUse" xlink:type="simple" xlink:actuate="onLoad" xlink:show="other" /><linearGradient xmlns:xlink="http://www.w3.org/1999/xlink" xlink:href="#linearGradientFAFBFCFFFFCC" id="linearGradientFAFBFCFFFFCC_441061074" x1="0" y1="685.0" x2="0" y2="745.0" gradientUnits="userSpaceOnUse" xlink:type="simple" xlink:actuate="onLoad" xlink:show="other" /><linearGradient xmlns:xlink="http://www.w3.org/1999/xlink" xlink:href="#linearGradientFF6666FF9696FFB6B6" id="linearGradientFF6666FF9696FFB6B6_320682567" x1="0" y1="710.0" x2="0" y2="745.0" gradientUnits="userSpaceOnUse" xlink:type="simple" xlink:actuate="onLoad" xlink:show="other" /><linearGradient xmlns:xlink="http://www.w3.org/1999/xlink" xlink:href="#linearGradientFF6666FF9696FFB6B6" id="linearGradientFF6666FF9696FFB6B6_1420506851" x1="0" y1="590.0" x2="0" y2="625.0" gradientUnits="userSpaceOnUse" xlink:type="simple" xlink:actuate="onLoad" xlink:show="other" /><linearGradient xmlns:xlink="http://www.w3.org/1999/xlink" xlink:href="#linearGradientF8FBFEEDF5FCDEEDFAD4E7F8E2E5E9" id="linearGradientF8FBFEEDF5FCDEEDFAD4E7F8E2E5E9_509492783" x1="0" y1="900.0" x2="0" y2="1005.0" gradientUnits="userSpaceOnUse" xlink:type="simple" xlink:actuate="onLoad" xlink:show="other" /><linearGradient xmlns:xlink="http://www.w3.org/1999/xlink" xlink:href="#linearGradientFAFBFCFFFFCC" id="linearGradientFAFBFCFFFFCC_1411948456" x1="0" y1="890.0" x2="0" y2="950.0" gradientUnits="userSpaceOnUse" xlink:type="simple" xlink:actuate="onLoad" xlink:show="other" /><linearGradient xmlns:xlink="http://www.w3.org/1999/xlink" xlink:href="#linearGradientFF6666FF9696FFB6B6" id="linearGradientFF6666FF9696FFB6B6_773675112" x1="0" y1="910.0" x2="0" y2="945.0" gradientUnits="userSpaceOnUse" xlink:type="simple" xlink:actuate="onLoad" xlink:show="other" /><linearGradient xmlns:xlink="http://www.w3.org/1999/xlink" xlink:href="#linearGradientFF6666FF9696FFB6B6" id="linearGradientFF6666FF9696FFB6B6_596410214" x1="0" y1="800.0" x2="0" y2="835.0" gradientUnits="userSpaceOnUse" xlink:type="simple" xlink:actuate="onLoad" xlink:show="other" /></defs></svg>
