<?xml version="1.0" encoding="UTF-8"?>
<svg xmlns="http://www.w3.org/2000/svg" style="stroke-dasharray:none; shape-rendering:auto; font-family:'Arial'; text-rendering:auto; fill-opacity:1; color-interpolation:auto; color-rendering:auto; font-size:12; fill:black; stroke:black; image-rendering:auto; stroke-miterlimit:10; stroke-linecap:square; stroke-linejoin:miter; font-style:normal; stroke-width:1; stroke-dashoffset:0; font-weight:normal; stroke-opacity:1;" contentScriptType="text/ecmascript" preserveAspectRatio="xMidYMid meet" zoomAndPan="magnify" version="1.0" contentStyleType="text/css" xml:xlink="http://www.w3.org/1999/xlink" width="1421" height="1041"><rect x="10" y="670" width="1411" height="371" ry="0" rx="0" style="stroke:#000000; fill:#D0DAAE" /><g componentSequence="4"><text x="-855" y="17" transform="rotate(270)" text-anchor="middle" style="font-weight:bold;font-size:10px;stroke:none; fill:#434343"><tspan dy="14" x="-855">Validación SENAVE</tspan></text></g><rect x="10" y="154" width="1411" height="517" ry="0" rx="0" style="stroke:#000000; fill:#ADC9AC" /><g componentSequence="2"><text x="-412" y="17" transform="rotate(270)" text-anchor="middle" style="font-weight:bold;font-size:10px;stroke:none; fill:#434343"><tspan dy="14" x="-412">Aprobadores</tspan></text></g><rect x="10" y="10" width="1411" height="145" ry="0" rx="0" style="stroke:#000000; fill:#82B0B7" /><g componentSequence="1"><text x="-82" y="17" transform="rotate(270)" text-anchor="middle" style="font-weight:bold;font-size:10px;stroke:none; fill:#434343"><tspan dy="14" x="-82">Solicitantes</tspan></text></g><g sequence="5"><ellipse cx="157" cy="77" rx="17" ry="17" stroke-width="1" style="fill:url(#linearGradient66FF6696FF96B6FFB6_122372997);" stroke="336633" /></g><g sequence="6"><rect x="110" y="190" width="106" height="70" ry="5" rx="5" style="fill:url(#linearGradientF8FBFEEDF5FCDEEDFAD4E7F8E2E5E9_160218396);" stroke="191970" /></g><g componentSequence="6"><text x="163" y="205" text-anchor="middle" style="font-weight:bold;font-size:10px;stroke:none; fill:#333399"><tspan dy="14" x="163">Aprobación</tspan><tspan dy="14" x="163">Marketing</tspan></text></g><g sequence="8"><polygon points=" 370 200 400 170 430 200 400 230 370 200" style="fill:url(#linearGradientFAFBFCFFFFCC_229845237);" stroke="000000" /></g><g componentSequence="8"><text x="400" y="233" text-anchor="middle" style="font-weight:bold;font-size:10px;stroke:none; fill:#333399"><tspan dy="14" x="400">Decisión</tspan></text></g><g sequence="12"><ellipse cx="597" cy="217" rx="17" ry="17" stroke-width="3" style="fill:url(#linearGradientFF6666FF9696FFB6B6_1219606311);" stroke="993333" /></g><g sequence="12"><polygon points=" 588 213 593 208 598 213 603 208 608 213 603 218 608 223 603 228 598 223 593 228 588 223 593 218" style="stroke:none; fill:#993333" /></g><g sequence="13"><rect x="350" y="363" width="106" height="70" ry="5" rx="5" style="fill:url(#linearGradientF8FBFEEDF5FCDEEDFAD4E7F8E2E5E9_364614367);" stroke="191970" /></g><g componentSequence="13"><text x="403" y="378" text-anchor="middle" style="font-weight:bold;font-size:10px;stroke:none; fill:#333399"><tspan dy="14" x="403">Aprobación</tspan><tspan dy="14" x="403">Registros</tspan></text></g><g sequence="15"><polygon points=" 620 370 650 340 680 370 650 400 620 370" style="fill:url(#linearGradientFAFBFCFFFFCC_2033432873);" stroke="000000" /></g><g componentSequence="15"><text x="650" y="403" text-anchor="middle" style="font-weight:bold;font-size:10px;stroke:none; fill:#333399"><tspan dy="14" x="650">Decisión</tspan></text></g><g sequence="19"><ellipse cx="847" cy="387" rx="17" ry="17" stroke-width="3" style="fill:url(#linearGradientFF6666FF9696FFB6B6_1842594426);" stroke="993333" /></g><g sequence="19"><polygon points=" 838 383 843 378 848 383 853 378 858 383 853 388 858 393 853 398 848 393 843 398 838 393 843 388" style="stroke:none; fill:#993333" /></g><g sequence="20"><rect x="600" y="520" width="106" height="84" ry="5" rx="5" style="fill:url(#linearGradientF8FBFEEDF5FCDEEDFAD4E7F8E2E5E9_681461864);" stroke="191970" /></g><g componentSequence="20"><text x="653" y="535" text-anchor="middle" style="font-weight:bold;font-size:10px;stroke:none; fill:#333399"><tspan dy="14" x="653">Aprobación</tspan><tspan dy="14" x="653">Etiqueta Técnica</tspan></text></g><g sequence="22"><polygon points=" 860 540 890 510 920 540 890 570 860 540" style="fill:url(#linearGradientFAFBFCFFFFCC_1643776718);" stroke="000000" /></g><g componentSequence="22"><text x="890" y="573" text-anchor="middle" style="font-weight:bold;font-size:10px;stroke:none; fill:#333399"><tspan dy="14" x="890">Decisión</tspan></text></g><g sequence="26"><ellipse cx="1077" cy="557" rx="17" ry="17" stroke-width="3" style="fill:url(#linearGradientFF6666FF9696FFB6B6_98831657);" stroke="993333" /></g><g sequence="26"><polygon points=" 1068 553 1073 548 1078 553 1083 548 1088 553 1083 558 1088 563 1083 568 1078 563 1073 568 1068 563 1073 558" style="stroke:none; fill:#993333" /></g><g sequence="27"><rect x="840" y="710" width="106" height="70" ry="5" rx="5" style="fill:url(#linearGradientF8FBFEEDF5FCDEEDFAD4E7F8E2E5E9_1993854973);" stroke="191970" /></g><g componentSequence="27"><text x="893" y="725" text-anchor="middle" style="font-weight:bold;font-size:10px;stroke:none; fill:#333399"><tspan dy="14" x="893">Documentación</tspan><tspan dy="14" x="893">SENAVE</tspan></text></g><g sequence="29"><rect x="840" y="880" width="106" height="70" ry="5" rx="5" style="fill:url(#linearGradientF8FBFEEDF5FCDEEDFAD4E7F8E2E5E9_751834183);" stroke="191970" /></g><g componentSequence="29"><text x="893" y="895" text-anchor="middle" style="font-weight:bold;font-size:10px;stroke:none; fill:#333399"><tspan dy="14" x="893">Confirmación de</tspan><tspan dy="14" x="893">Aprobación</tspan></text></g><g sequence="31"><ellipse cx="1127" cy="907" rx="17" ry="17" stroke-width="3" style="fill:url(#linearGradientFF6666FF9696FFB6B6_500029289);" stroke="993333" /></g><g componentSequence="7"><text x="170" y="142" style="font-size:10px;font-weight:none;stroke:none; fill:#333399" text-anchor="left" /></g><g componentSequence="9"><text x="303" y="219" style="font-size:10px;font-weight:none;stroke:none; fill:#333399" text-anchor="left" /></g><g componentSequence="11"><text x="515" y="216" style="font-size:10px;font-weight:none;stroke:none; fill:#333399" text-anchor="left" /></g><g componentSequence="14"><text x="411" y="310" style="font-size:10px;font-weight:none;stroke:none; fill:#333399" text-anchor="left" /></g><g componentSequence="16"><text x="548" y="390" style="font-size:10px;font-weight:none;stroke:none; fill:#333399" text-anchor="left" /></g><g componentSequence="18"><text x="765" y="386" style="font-size:10px;font-weight:none;stroke:none; fill:#333399" text-anchor="left" /></g><g componentSequence="21"><text x="661" y="474" style="font-size:10px;font-weight:none;stroke:none; fill:#333399" text-anchor="left" /></g><g componentSequence="23"><text x="793" y="558" style="font-size:10px;font-weight:none;stroke:none; fill:#333399" text-anchor="left" /></g><g componentSequence="25"><text x="1000" y="556" style="font-size:10px;font-weight:none;stroke:none; fill:#333399" text-anchor="left" /></g><g componentSequence="28"><text x="901" y="654" style="font-size:10px;font-weight:none;stroke:none; fill:#333399" text-anchor="left" /></g><g componentSequence="30"><text x="903" y="830" style="font-size:10px;font-weight:none;stroke:none; fill:#333399" text-anchor="left" /></g><g componentSequence="32"><text x="1038" y="911" style="font-size:10px;font-weight:none;stroke:none; fill:#333399" text-anchor="left" /></g><path style="fill:none; stroke:#000000;stroke-width:1" d="M157.0 94.0 L161.0 189.0" /><polygon style="fill:#000000; stroke:#000000;" points=" 166 179 161 189 156 179 161 181" /><path style="fill:none; stroke:#000000;stroke-width:1" d="M216.0 222.0 L369.0 215.0" /><polygon style="fill:#000000; stroke:#000000;" points=" 359 210 369 215 359 220 361 215" /><path style="fill:none; stroke:#000000;stroke-width:1" d="M430.0 214.0 L580.0 217.0" /><polygon style="fill:#000000; stroke:#000000;" points=" 570 212 580 217 570 222 572 217" /><path style="fill:none; stroke:#000000;stroke-width:1" d="M400.0 258.0 L402.0 362.0" /><polygon style="fill:#000000; stroke:#000000;" points=" 407 352 402 362 397 352 402 354" /><path style="fill:none; stroke:#000000;stroke-width:1" d="M456.0 395.0 L619.0 385.0" /><polygon style="fill:#000000; stroke:#000000;" points=" 609 381 619 385 609 391 611 385" /><path style="fill:none; stroke:#000000;stroke-width:1" d="M680.0 384.0 L830.0 387.0" /><polygon style="fill:#000000; stroke:#000000;" points=" 820 382 830 387 820 392 822 387" /><path style="fill:none; stroke:#000000;stroke-width:1" d="M650.0 428.0 L652.0 519.0" /><polygon style="fill:#000000; stroke:#000000;" points=" 657 509 652 519 647 509 652 511" /><path style="fill:none; stroke:#000000;stroke-width:1" d="M706.0 560.0 L859.0 555.0" /><polygon style="fill:#000000; stroke:#000000;" points=" 849 550 859 555 849 560 851 555" /><path style="fill:none; stroke:#000000;stroke-width:1" d="M920.0 554.0 L1060.0 557.0" /><polygon style="fill:#000000; stroke:#000000;" points=" 1050 552 1060 557 1050 562 1052 557" /><path style="fill:none; stroke:#000000;stroke-width:1" d="M890.0 598.0 L892.0 709.0" /><polygon style="fill:#000000; stroke:#000000;" points=" 897 699 892 709 887 699 892 701" /><path style="fill:none; stroke:#000000;stroke-width:1" d="M893.0 780.0 L893.0 879.0" /><polygon style="fill:#000000; stroke:#000000;" points=" 898 869 893 879 888 869 893 871" /><path style="fill:none; stroke:#000000;stroke-width:1" d="M946.0 913.0 L1110.0 907.0" /><polygon style="fill:#000000; stroke:#000000;" points=" 1100 902 1110 907 1100 912 1102 907" /><defs><linearGradient xmlns:xlink="http://www.w3.org/1999/xlink" xlink:href="#linearGradient66FF6696FF96B6FFB6" id="linearGradient66FF6696FF96B6FFB6_122372997" x1="0" y1="60.0" x2="0" y2="95.0" gradientUnits="userSpaceOnUse" xlink:type="simple" xlink:actuate="onLoad" xlink:show="other" /><linearGradient id="linearGradient66FF6696FF96B6FFB6"><stop style="stop-color:#66FF66;stop-opacity:1;" offset="0.0" id="stop66FF66" /><stop style="stop-color:#96FF96;stop-opacity:1;" offset="0.5" id="stop96FF96" /><stop style="stop-color:#B6FFB6;stop-opacity:1;" offset="1.0" id="stopB6FFB6" /></linearGradient><linearGradient xmlns:xlink="http://www.w3.org/1999/xlink" xlink:href="#linearGradientF8FBFEEDF5FCDEEDFAD4E7F8E2E5E9" id="linearGradientF8FBFEEDF5FCDEEDFAD4E7F8E2E5E9_160218396" x1="0" y1="190.0" x2="0" y2="296.0" gradientUnits="userSpaceOnUse" xlink:type="simple" xlink:actuate="onLoad" xlink:show="other" /><linearGradient id="linearGradientF8FBFEEDF5FCDEEDFAD4E7F8E2E5E9"><stop style="stop-color:#F8FBFE;stop-opacity:1;" offset="0.0" id="stopF8FBFE" /><stop style="stop-color:#EDF5FC;stop-opacity:1;" offset="0.25" id="stopEDF5FC" /><stop style="stop-color:#DEEDFA;stop-opacity:1;" offset="0.5" id="stopDEEDFA" /><stop style="stop-color:#D4E7F8;stop-opacity:1;" offset="0.75" id="stopD4E7F8" /><stop style="stop-color:#E2E5E9;stop-opacity:1;" offset="1.0" id="stopE2E5E9" /></linearGradient><linearGradient xmlns:xlink="http://www.w3.org/1999/xlink" xlink:href="#linearGradientFAFBFCFFFFCC" id="linearGradientFAFBFCFFFFCC_229845237" x1="0" y1="170.0" x2="0" y2="230.0" gradientUnits="userSpaceOnUse" xlink:type="simple" xlink:actuate="onLoad" xlink:show="other" /><linearGradient id="linearGradientFAFBFCFFFFCC"><stop style="stop-color:#FAFBFC;stop-opacity:1;" offset="0.0" id="stopFAFBFC" /><stop style="stop-color:#FFFFCC;stop-opacity:1;" offset="1.0" id="stopFFFFCC" /></linearGradient><linearGradient xmlns:xlink="http://www.w3.org/1999/xlink" xlink:href="#linearGradientFF6666FF9696FFB6B6" id="linearGradientFF6666FF9696FFB6B6_1219606311" x1="0" y1="200.0" x2="0" y2="235.0" gradientUnits="userSpaceOnUse" xlink:type="simple" xlink:actuate="onLoad" xlink:show="other" /><linearGradient id="linearGradientFF6666FF9696FFB6B6"><stop style="stop-color:#FF6666;stop-opacity:1;" offset="0.0" id="stopFF6666" /><stop style="stop-color:#FF9696;stop-opacity:1;" offset="0.5" id="stopFF9696" /><stop style="stop-color:#FFB6B6;stop-opacity:1;" offset="1.0" id="stopFFB6B6" /></linearGradient><linearGradient xmlns:xlink="http://www.w3.org/1999/xlink" xlink:href="#linearGradientF8FBFEEDF5FCDEEDFAD4E7F8E2E5E9" id="linearGradientF8FBFEEDF5FCDEEDFAD4E7F8E2E5E9_364614367" x1="0" y1="363.0" x2="0" y2="469.0" gradientUnits="userSpaceOnUse" xlink:type="simple" xlink:actuate="onLoad" xlink:show="other" /><linearGradient xmlns:xlink="http://www.w3.org/1999/xlink" xlink:href="#linearGradientFAFBFCFFFFCC" id="linearGradientFAFBFCFFFFCC_2033432873" x1="0" y1="340.0" x2="0" y2="400.0" gradientUnits="userSpaceOnUse" xlink:type="simple" xlink:actuate="onLoad" xlink:show="other" /><linearGradient xmlns:xlink="http://www.w3.org/1999/xlink" xlink:href="#linearGradientFF6666FF9696FFB6B6" id="linearGradientFF6666FF9696FFB6B6_1842594426" x1="0" y1="370.0" x2="0" y2="405.0" gradientUnits="userSpaceOnUse" xlink:type="simple" xlink:actuate="onLoad" xlink:show="other" /><linearGradient xmlns:xlink="http://www.w3.org/1999/xlink" xlink:href="#linearGradientF8FBFEEDF5FCDEEDFAD4E7F8E2E5E9" id="linearGradientF8FBFEEDF5FCDEEDFAD4E7F8E2E5E9_681461864" x1="0" y1="520.0" x2="0" y2="626.0" gradientUnits="userSpaceOnUse" xlink:type="simple" xlink:actuate="onLoad" xlink:show="other" /><linearGradient xmlns:xlink="http://www.w3.org/1999/xlink" xlink:href="#linearGradientFAFBFCFFFFCC" id="linearGradientFAFBFCFFFFCC_1643776718" x1="0" y1="510.0" x2="0" y2="570.0" gradientUnits="userSpaceOnUse" xlink:type="simple" xlink:actuate="onLoad" xlink:show="other" /><linearGradient xmlns:xlink="http://www.w3.org/1999/xlink" xlink:href="#linearGradientFF6666FF9696FFB6B6" id="linearGradientFF6666FF9696FFB6B6_98831657" x1="0" y1="540.0" x2="0" y2="575.0" gradientUnits="userSpaceOnUse" xlink:type="simple" xlink:actuate="onLoad" xlink:show="other" /><linearGradient xmlns:xlink="http://www.w3.org/1999/xlink" xlink:href="#linearGradientF8FBFEEDF5FCDEEDFAD4E7F8E2E5E9" id="linearGradientF8FBFEEDF5FCDEEDFAD4E7F8E2E5E9_1993854973" x1="0" y1="710.0" x2="0" y2="816.0" gradientUnits="userSpaceOnUse" xlink:type="simple" xlink:actuate="onLoad" xlink:show="other" /><linearGradient xmlns:xlink="http://www.w3.org/1999/xlink" xlink:href="#linearGradientF8FBFEEDF5FCDEEDFAD4E7F8E2E5E9" id="linearGradientF8FBFEEDF5FCDEEDFAD4E7F8E2E5E9_751834183" x1="0" y1="880.0" x2="0" y2="986.0" gradientUnits="userSpaceOnUse" xlink:type="simple" xlink:actuate="onLoad" xlink:show="other" /><linearGradient xmlns:xlink="http://www.w3.org/1999/xlink" xlink:href="#linearGradientFF6666FF9696FFB6B6" id="linearGradientFF6666FF9696FFB6B6_500029289" x1="0" y1="890.0" x2="0" y2="925.0" gradientUnits="userSpaceOnUse" xlink:type="simple" xlink:actuate="onLoad" xlink:show="other" /></defs></svg>
